<?xml version="1.0" encoding="utf-8"?>
<!-- Generator: Adobe Illustrator 25.2.3, SVG Export Plug-In . SVG Version: 6.00 Build 0)  -->
<svg version="1.1" id="Layer_1" xmlns="http://www.w3.org/2000/svg" xmlns:xlink="http://www.w3.org/1999/xlink" x="0px" y="0px"
	 viewBox="0 0 1190.55 841.89" style="enable-background:new 0 0 1190.55 841.89;" xml:space="preserve">
<style type="text/css">
	.st0{clip-path:url(#SVGID_2_);fill:#FFFFFF;}
	.st1{fill:#FFFFFF;}
	.st2{clip-path:url(#SVGID_4_);fill:#FFFFFF;}
</style>
<g>
	<defs>
		<rect id="SVGID_1_" x="256.05" y="355.68" width="732" height="112.41"/>
	</defs>
	<use xlink:href="#SVGID_1_"  style="overflow:visible;fill:#FFFFFF;"/>
	<clipPath id="SVGID_2_">
		<use xlink:href="#SVGID_1_"  style="overflow:visible;"/>
	</clipPath>
	<path class="st0" d="M303.26,466.64c21.37,0,30.51-9.57,30.51-29.2c0-18-8.99-27.09-32.12-27.09h-20.38v15.74
		c0,39.9,0.48,40.55,8.35,40.55H303.26z M281.27,397.69v10.87h18.3c19.92,0,30.51-7.14,30.51-26.6s-10.44-24.33-30.99-24.33h-11.56
		C279.66,357.63,281.27,357.79,281.27,397.69 M257.01,466.64h2.89c7.87,0,8.68-0.65,8.68-40.55v-28.39c0-39.9-0.81-40.55-8.68-40.55
		h-2.89c-1.28,0-1.28-1.46,0-1.46c4.49,0,15.42,0.49,17.82,0.49c2.25,0,23.77-0.49,26.66-0.49c26.98,0,42.24,6.49,42.24,26.44
		c0,16.22-13.65,24.49-32.76,26.93c20.56,1.62,36.46,10.71,36.46,28.39c0,19.31-12.37,30.66-41.76,30.66
		c-2.89,0-28.58-0.48-30.83-0.48c-2.4,0-13.33,0.48-17.82,0.48C255.73,468.09,255.73,466.64,257.01,466.64"/>
</g>
<path class="st1" d="M408.92,366.6h0.32l30.03,67.45h-60.38L408.92,366.6z M403.62,355.68l-50.9,112.41h11.08l11.24-25.21h68.09
	l11.24,25.21h10.92l-50.91-112.41H403.62z"/>
<g>
	<defs>
		<rect id="SVGID_3_" x="256.05" y="355.68" width="732" height="112.41"/>
	</defs>
	<use xlink:href="#SVGID_3_"  style="overflow:visible;fill:#FFFFFF;"/>
	<clipPath id="SVGID_4_">
		<use xlink:href="#SVGID_3_"  style="overflow:visible;"/>
	</clipPath>
	<path class="st2" d="M520.56,466.64c21.35,0,30.51-9.57,30.51-29.2c0-18-9-27.09-32.12-27.09h-20.4v15.74
		c0,39.9,0.48,40.55,8.35,40.55H520.56z M498.55,397.69v10.87h18.31c19.92,0,30.51-7.14,30.51-26.6s-10.44-24.33-31-24.33h-11.56
		C496.95,357.63,498.55,357.79,498.55,397.69 M474.31,466.64h2.89c7.87,0,8.66-0.65,8.66-40.55v-28.39c0-39.9-0.8-40.55-8.66-40.55
		h-2.89c-1.29,0-1.29-1.46,0-1.46c4.49,0,15.41,0.49,17.82,0.49c2.25,0,23.76-0.49,26.66-0.49c26.98,0,42.24,6.49,42.24,26.44
		c0,16.22-13.65,24.49-32.76,26.93c20.56,1.62,36.45,10.71,36.45,28.39c0,19.31-12.36,30.66-41.75,30.66
		c-2.89,0-28.58-0.48-30.83-0.48c-2.41,0-13.33,0.48-17.82,0.48C473.02,468.09,473.02,466.64,474.31,466.64"/>
</g>
<polygon class="st1" points="586.12,355.68 586.12,468.1 665.44,468.1 665.44,458.78 596.39,458.78 596.39,414.46 660.47,414.46 
	660.47,405.63 596.39,405.63 596.39,365 665.44,365 665.44,355.68 "/>
<path class="st1" d="M713.78,466.64h2.89c7.87,0,8.68-0.65,8.68-40.43v-69.07c-4.49,0.16-9.47,0.16-13.17,0.16
	c-17.18,0-23.28,11.97-26.49,32.99l-1.29,9.22c-0.32,0.97-1.92,1.13-1.61,0l1.29-9.22c2.25-17.47,0.8-32.99,1.77-33.48
	c0.96-0.49,8.51-1.14,19.59-1.14c4.01,0,18.95,0.33,26.02,0.33c7.06,0,9.63-0.33,25.86-0.33c11.07,0,18.78,0.65,19.75,1.14
	c0.97,0.48-0.48,16.01,1.93,33.48l1.12,9.22c0.32,1.13-1.12,0.97-1.44,0l-1.45-9.22c-3.21-21.03-9.31-32.99-26.66-33.16H737.7v69.07
	c0,39.79,0.8,40.43,8.68,40.43h2.89c1.28,0,1.28,1.45,0,1.45c-4.49,0-15.42-0.48-17.67-0.48c-2.4,0-13.33,0.48-17.82,0.48
	C712.49,468.09,712.49,466.64,713.78,466.64"/>
<path class="st1" d="M825.05,466.64h2.89c7.87,0,8.67-0.65,8.67-40.43v-69.07c-4.49,0.16-9.47,0.16-13.17,0.16
	c-17.18,0-23.29,11.97-26.49,32.99l-1.29,9.22c-0.32,0.97-1.93,1.13-1.61,0l1.28-9.22c2.25-17.47,0.8-32.99,1.76-33.48
	c0.97-0.49,8.51-1.14,19.59-1.14c4.02,0,18.96,0.33,26.02,0.33c7.07,0,9.64-0.33,25.86-0.33c11.08,0,18.79,0.65,19.75,1.14
	c0.97,0.48-0.48,16.01,1.93,33.48l1.13,9.22c0.31,1.13-1.13,0.97-1.45,0l-1.44-9.22c-3.21-21.03-9.31-32.99-26.66-33.16h-12.85
	v69.07c0,39.79,0.8,40.43,8.67,40.43h2.89c1.29,0,1.29,1.45,0,1.45c-4.49,0-15.41-0.48-17.66-0.48c-2.41,0-13.33,0.48-17.83,0.48
	C823.77,468.09,823.77,466.64,825.05,466.64"/>
<polygon class="st1" points="908.72,355.68 908.72,468.1 988.06,468.1 988.06,458.78 919,458.78 919,414.46 983.07,414.46 
	983.07,405.63 919,405.63 919,365 988.06,365 988.06,355.68 "/>
</svg>
